<?xml version="1.0" encoding="utf-8"?>
<!-- Generator: Adobe Illustrator 26.0.1, SVG Export Plug-In . SVG Version: 6.00 Build 0)  -->
<svg version="1.1" id="Layer_1" xmlns="http://www.w3.org/2000/svg" xmlns:xlink="http://www.w3.org/1999/xlink" x="0px" y="0px"
		viewBox="0 0 360 200" style="enable-background:new 0 0 360 200;" xml:space="preserve">
<style type="text/css">
	.st0{fill:#AAAAAA;stroke:#000000;stroke-miterlimit:10;}
	.st1{fill:none;stroke:#000000;stroke-miterlimit:10;}
	.st2{fill:#333333;}
	.st3{opacity:0.5;fill:#DDDDDD;stroke:#000000;stroke-miterlimit:10;enable-background:new    ;}
	.st4{fill:none;stroke:#333333;stroke-linecap:round;stroke-miterlimit:10;}
	.st5{fill:#555555;}
</style>
<g id="b3941772-49ad-4fa4-8021-a85c0f97e609">
	<path class="st0" d="M175.6,125.7c28.3-16,19.5-37.8-12.9-49.3c-28.9-10.3-71.3-10.3-100.2,0c-32.3,11.5-41.2,33.3-12.9,49.3
		C82.3,144.1,143,144.1,175.6,125.7z"/>
	<path d="M112.6,20.7c43.8,0,79.3,35.5,79.3,79.3s-35.5,79.3-79.3,79.3S33.3,143.8,33.3,100c0-21,8.4-41.2,23.2-56.1
		C71.4,29,91.6,20.7,112.6,20.7 M112.6,20c-44.2,0-80,35.8-80,80s35.8,80,80,80s80-35.8,80-80C192.6,55.8,156.8,20,112.6,20
		L112.6,20z"/>
	<line class="st1" x1="112.6" y1="100" x2="162" y2="131.8"/>
	<path class="st2" d="M112.6,20.7c43.8,0,79.3,35.5,79.3,79.3s-35.5,79.3-79.3,79.3S33.3,143.8,33.3,100c0-21,8.4-41.2,23.2-56.1
		C71.4,29,91.6,20.7,112.6,20.7 M112.6,20c-44.2,0-80,35.8-80,80s35.8,80,80,80s80-35.8,80-80C192.6,55.8,156.8,20,112.6,20
		L112.6,20z"/>
	<circle class="st3" cx="112.6" cy="100" r="80"/>
</g>
<g id="bcd5372d-a563-4768-a60b-082ef6ba2084">
	<path class="st1" d="M32.6,104.1c0,7.4,5.4,15.1,17,21.6c32.6,18.4,93.3,18.4,126,0c11.6-6.6,17-14.2,17-21.6"/>
</g>
<path class="st2" d="M146.5,109.9c-0.2,0-0.4-0.1-0.5-0.2c-0.1-0.1-0.2-0.3-0.2-0.5c0-0.2,0.3-1.5,0.9-3.8c0.4-1.3,0.7-2.6,0.9-3.9
	c0-0.6-0.2-0.9-0.6-0.9c-0.2,0-0.3,0.1-0.4,0.2c-0.6,0.7-0.9,1.6-1.1,2.4c0,0,0,0.1,0,0.1c0,0,0,0,0,0.1c0,0,0,0,0,0c0,0,0,0-0.1,0
	h-0.6c-0.1-0.1-0.1-0.2-0.1-0.2c0.1-0.4,0.2-0.7,0.3-1c0.2-0.7,0.5-1.3,1-1.8c0.3-0.3,0.7-0.5,1.2-0.5c0.5,0,1,0.1,1.4,0.4
	c0.3,0.2,0.5,0.5,0.6,0.8c0,0.1,0.1,0.1,0.1,0.1c0,0,0.1,0,0.2-0.2c0.5-0.6,1.1-1,1.9-1.1c0.2,0,0.4,0,0.6,0c0.5,0,1,0.1,1.3,0.5
	c0.3,0.3,0.5,0.8,0.5,1.3c0,0.4-0.1,0.8-0.4,1.2c-0.2,0.3-0.6,0.5-1,0.5c-0.3,0-0.5-0.1-0.7-0.2c-0.2-0.2-0.3-0.4-0.3-0.6
	c0-0.7,0.5-1.3,1.2-1.4c-0.2-0.2-0.5-0.3-0.8-0.3c-0.3,0-0.6,0.1-0.9,0.2c-0.6,0.3-1.1,0.8-1.4,1.4c-0.1,0.2-0.3,0.5-0.3,0.7
	c-0.1,0.2-0.3,1.2-0.7,2.9c-0.5,2.1-0.8,3.1-0.9,3.3C147.2,109.7,146.9,109.9,146.5,109.9z"/>
<circle class="st5" cx="112.6" cy="100" r="3"/>
</svg>
